<svg xmlns="http://www.w3.org/2000/svg" xmlns:xlink="http://www.w3.org/1999/xlink" width="750" zoomAndPan="magnify" viewBox="0 0 562.5 431.249996" height="575" preserveAspectRatio="xMidYMid meet" version="1.0"><defs><clipPath id="2e4ee0eedf"><path d="M 8 111 L 143 111 L 143 280.898438 L 8 280.898438 Z M 8 111 " clip-rule="nonzero"/></clipPath><clipPath id="b9c673b3cc"><path d="M 212 39 L 532 39 L 532 280 L 212 280 Z M 212 39 " clip-rule="nonzero"/></clipPath><clipPath id="15fadec516"><path d="M 229.984375 37.234375 L 534.804688 65.425781 L 514.703125 282.792969 L 209.882812 254.601562 Z M 229.984375 37.234375 " clip-rule="nonzero"/></clipPath><clipPath id="12627785fd"><path d="M 261.296875 40.128906 L 502.785156 62.464844 C 520.078125 64.0625 532.800781 79.378906 531.199219 96.671875 L 516.890625 251.414062 C 515.289062 268.707031 499.976562 281.429688 482.683594 279.832031 L 241.191406 257.496094 C 223.898438 255.898438 211.175781 240.582031 212.777344 223.289062 L 227.089844 68.546875 C 228.6875 51.253906 244.003906 38.53125 261.296875 40.128906 Z M 261.296875 40.128906 " clip-rule="nonzero"/></clipPath><clipPath id="5d098eb04d"><path d="M 209 39 L 272 39 L 272 236 L 209 236 Z M 209 39 " clip-rule="nonzero"/></clipPath><clipPath id="e79618f4da"><path d="M 217.542969 37.953125 L 273.039062 40.6875 L 263.351562 237.523438 L 207.859375 234.792969 Z M 217.542969 37.953125 " clip-rule="nonzero"/></clipPath><clipPath id="6eacc3dd46"><path d="M 245.292969 39.320312 C 252.652344 39.683594 259.566406 42.953125 264.511719 48.414062 C 269.460938 53.875 272.035156 61.074219 271.675781 68.433594 L 264.730469 209.566406 C 264.367188 216.925781 261.097656 223.839844 255.636719 228.789062 C 250.175781 233.734375 242.976562 236.3125 235.617188 235.949219 C 228.257812 235.585938 221.34375 232.316406 216.394531 226.855469 C 211.445312 221.398438 208.871094 214.195312 209.234375 206.835938 L 216.179688 65.703125 C 216.539062 58.34375 219.8125 51.429688 225.269531 46.480469 C 230.730469 41.535156 237.933594 38.957031 245.292969 39.320312 Z M 245.292969 39.320312 " clip-rule="nonzero"/></clipPath><clipPath id="08f418eaad"><path d="M 82 8.199219 L 556.042969 8.199219 L 556.042969 422 L 82 422 Z M 82 8.199219 " clip-rule="nonzero"/></clipPath><clipPath id="d83846026e"><path d="M 240.453125 74.253906 L 491 74.253906 L 491 250.304688 L 240.453125 250.304688 Z M 240.453125 74.253906 " clip-rule="nonzero"/></clipPath><clipPath id="d5f74eb8c8"><path d="M 365.667969 74.253906 C 296.511719 74.253906 240.453125 113.664062 240.453125 162.277344 C 240.453125 210.894531 296.511719 250.304688 365.667969 250.304688 C 434.820312 250.304688 490.878906 210.894531 490.878906 162.277344 C 490.878906 113.664062 434.820312 74.253906 365.667969 74.253906 Z M 365.667969 74.253906 " clip-rule="nonzero"/></clipPath><clipPath id="b5f7490ca5"><path d="M 299 94.195312 L 412.582031 94.195312 L 412.582031 218 L 299 218 Z M 299 94.195312 " clip-rule="nonzero"/></clipPath></defs><g clip-path="url(#2e4ee0eedf)"><path fill="#f0ee8a" d="M 37.179688 117.683594 C 40.449219 119.1875 43.960938 121.210938 45.132812 124.875 C 46.632812 129.375 43.316406 133.292969 42.339844 137.496094 C 42.1875 138 42.117188 138.519531 42.128906 139.046875 C 42.140625 139.574219 42.230469 140.089844 42.402344 140.589844 C 42.574219 141.089844 42.820312 141.550781 43.136719 141.972656 C 43.457031 142.394531 43.828125 142.757812 44.261719 143.0625 C 45.800781 144.070312 47.160156 145.273438 48.34375 146.679688 C 50.835938 150.222656 49.46875 154.636719 47.9375 158.25 C 47.097656 160.234375 43.839844 159.347656 44.683594 157.351562 C 45.640625 155.460938 46.203125 153.460938 46.363281 151.347656 C 46.328125 150.457031 46.089844 149.628906 45.644531 148.859375 C 45.195312 148.089844 44.597656 147.46875 43.839844 146.996094 C 41.230469 144.953125 38.875 143.140625 38.753906 139.492188 C 38.605469 135.273438 41.664062 131.988281 42.070312 127.9375 C 42.476562 123.882812 38.511719 122.039062 35.480469 120.613281 C 33.515625 119.667969 35.226562 116.769531 37.179688 117.683594 Z M 48.058594 119.261719 C 50.59375 120.761719 53.640625 122.472656 54.886719 125.265625 C 56.464844 128.820312 53.523438 132.421875 52.621094 135.769531 C 52.382812 136.503906 52.25 137.257812 52.21875 138.03125 C 52.1875 138.804688 52.257812 139.566406 52.4375 140.320312 C 52.613281 141.074219 52.886719 141.789062 53.261719 142.464844 C 53.632812 143.140625 54.089844 143.757812 54.632812 144.308594 C 57.421875 147.3125 56.132812 150.761719 54.796875 154.167969 C 53.988281 156.179688 57.242188 157.066406 58.054688 155.070312 C 59.417969 151.707031 60.710938 147.640625 58.835938 144.203125 C 57.980469 142.703125 56.164062 141.609375 55.699219 139.851562 C 55.140625 137.75 56.222656 135.453125 57.035156 133.578125 C 58.535156 130.113281 59.480469 126.613281 57.574219 123.074219 C 55.894531 120.070312 52.695312 118 49.769531 116.289062 C 49.574219 116.175781 49.359375 116.105469 49.136719 116.074219 C 48.910156 116.046875 48.6875 116.058594 48.46875 116.121094 C 48.25 116.179688 48.050781 116.277344 47.867188 116.417969 C 47.6875 116.554688 47.542969 116.722656 47.429688 116.917969 C 47.316406 117.117188 47.242188 117.328125 47.214844 117.554688 C 47.183594 117.777344 47.199219 118 47.257812 118.222656 C 47.316406 118.441406 47.417969 118.640625 47.554688 118.820312 C 47.695312 119 47.863281 119.148438 48.058594 119.261719 Z M 67.433594 120.898438 C 70.058594 124.199219 67.015625 129.722656 65.257812 132.8125 C 63.5 135.90625 61.789062 139.671875 64.746094 142.554688 C 65.992188 143.753906 67.75 144.292969 68.335938 146.050781 C 68.476562 146.445312 68.558594 146.855469 68.585938 147.277344 C 68.613281 147.695312 68.578125 148.109375 68.488281 148.523438 C 68.398438 148.933594 68.253906 149.324219 68.054688 149.695312 C 67.855469 150.066406 67.609375 150.402344 67.3125 150.703125 C 65.8125 152.203125 68.183594 154.636719 69.714844 153.089844 C 70.035156 152.761719 70.324219 152.410156 70.582031 152.035156 C 70.839844 151.65625 71.0625 151.261719 71.25 150.847656 C 71.441406 150.429688 71.59375 150.003906 71.707031 149.558594 C 71.820312 149.117188 71.898438 148.671875 71.933594 148.214844 C 71.972656 147.761719 71.96875 147.304688 71.925781 146.851562 C 71.882812 146.394531 71.800781 145.949219 71.683594 145.507812 C 71.5625 145.066406 71.40625 144.640625 71.210938 144.226562 C 71.015625 143.816406 70.789062 143.421875 70.527344 143.046875 C 69.535156 141.683594 66.847656 140.753906 66.503906 139.101562 C 66.023438 136.878906 68.542969 134.027344 69.503906 132.136719 C 71.261719 128.402344 73.183594 123.417969 70.707031 119.574219 C 68.664062 116.425781 64.925781 115.074219 62.421875 112.355469 C 60.875 110.828125 58.472656 113.210938 59.960938 114.804688 C 62.167969 117.160156 65.378906 118.433594 67.433594 120.898438 Z M 39.414062 198.789062 C 35.617188 198.171875 28.339844 196.988281 28.054688 192.019531 C 27.886719 189.46875 29.839844 187.726562 32.03125 186.855469 C 35.261719 185.792969 38.566406 185.019531 41.933594 184.546875 C 49.304688 183.046875 56.75 182.007812 64.222656 181.257812 C 71.785156 180.453125 79.367188 180.054688 86.972656 180.058594 C 91.476562 180.058594 97.71875 181.4375 97.585938 187.066406 C 97.433594 193.308594 89.179688 195.953125 84.316406 197.183594 C 77.535156 198.640625 70.675781 199.320312 63.742188 199.222656 C 61.324219 199.222656 58.878906 199.328125 56.449219 199.296875 C 55.472656 199.296875 54.496094 199.417969 53.523438 199.417969 C 48.789062 199.859375 44.085938 199.648438 39.414062 198.789062 Z M 55.832031 195.605469 L 54.949219 195.457031 C 54.105469 195.589844 53.28125 195.710938 52.457031 195.800781 L 54.078125 195.875 L 54.378906 195.875 Z M 69.429688 195.695312 C 68.1875 195.488281 66.984375 195.15625 65.8125 194.691406 C 65.925781 195.078125 65.925781 195.460938 65.8125 195.847656 Z M 92.738281 184.574219 L 92.917969 184.757812 C 93.699219 185.539062 94.097656 186.484375 94.117188 187.59375 C 94.117188 187.59375 94.117188 187.441406 94.117188 187.367188 C 94.167969 187.089844 94.171875 186.816406 94.132812 186.539062 C 94.09375 186.261719 94.011719 185.996094 93.886719 185.746094 C 93.761719 185.492188 93.601562 185.269531 93.40625 185.070312 C 93.210938 184.867188 92.988281 184.703125 92.738281 184.574219 Z M 74.128906 185.132812 L 82.140625 184.652344 C 82.523438 184.648438 82.863281 184.765625 83.164062 184.996094 C 83.46875 185.226562 83.667969 185.527344 83.761719 185.898438 C 83.761719 186.078125 83.761719 186.257812 83.761719 186.421875 L 87.003906 185.730469 L 86.179688 185.550781 C 84.8125 185.222656 83.507812 184.652344 82.125 184.351562 C 80.664062 184.0625 79.207031 184.0625 77.746094 184.351562 C 76.558594 184.621094 75.34375 184.875 74.128906 185.132812 Z M 62.707031 189.257812 L 64.507812 190.265625 L 65.933594 190.007812 C 68.363281 189.558594 70.78125 189.0625 73.210938 188.597656 Z M 57.527344 190.925781 C 56.492188 190.789062 55.457031 190.789062 54.421875 190.925781 C 55.460938 190.945312 56.5 190.945312 57.527344 190.925781 Z M 45.265625 187.351562 C 47.832031 186.992188 50.398438 186.722656 52.980469 186.527344 L 53.988281 186.527344 C 55.136719 186.085938 56.3125 185.71875 57.511719 185.429688 L 57.394531 185.429688 C 53.332031 185.960938 49.289062 186.601562 45.265625 187.351562 Z M 41.558594 194.0625 C 41.8125 194.164062 42.066406 194.253906 42.324219 194.332031 C 42.867188 194.480469 43.421875 194.601562 43.960938 194.722656 C 43.542969 194.445312 43.167969 194.121094 42.835938 193.746094 C 42.613281 193.875 42.371094 193.957031 42.117188 193.984375 Z M 35.84375 192.441406 L 35.84375 192.363281 Z M 139.984375 262.511719 C 137.351562 264.882812 134.464844 266.886719 131.324219 268.515625 C 128.179688 270.242188 124.933594 271.742188 121.582031 273.019531 C 114.695312 275.636719 107.601562 277.457031 100.300781 278.480469 C 84.976562 280.777344 69.398438 280.417969 53.988281 279.5 C 45.203125 278.992188 36.441406 278.210938 27.707031 277.160156 C 21.945312 276.46875 14.320312 276.230469 10.296875 271.351562 C 5.632812 265.695312 10.296875 258.355469 14.636719 254.152344 C 17.074219 251.816406 19.839844 249.980469 22.941406 248.640625 C 26.039062 247.296875 29.273438 246.539062 32.644531 246.363281 C 29.339844 242.433594 26.421875 238.230469 23.894531 233.757812 C 21.214844 228.957031 19.03125 223.945312 17.335938 218.71875 C 15.640625 213.492188 14.46875 208.148438 13.824219 202.691406 C 13.25 201.941406 12.800781 201.128906 12.472656 200.246094 C 11.710938 198.203125 14.964844 197.332031 15.730469 199.359375 C 16.902344 202.359375 20.5625 203.457031 23.492188 203.996094 C 27.6875 204.640625 31.910156 205.015625 36.15625 205.121094 C 45.402344 205.621094 54.644531 205.523438 63.878906 204.835938 C 72.125 204.222656 80.308594 203.136719 88.429688 201.578125 C 94.570312 200.394531 101.578125 199.328125 106.648438 195.351562 C 111.722656 191.375 111.960938 184.621094 108.046875 179.578125 C 103.542969 173.769531 95.875 172.507812 88.941406 172.523438 C 80.863281 172.675781 72.832031 173.332031 64.835938 174.492188 C 56.507812 175.554688 48.222656 176.9375 39.96875 178.484375 C 36.050781 179.21875 32.121094 179.984375 28.21875 180.792969 C 24.964844 181.316406 21.960938 182.488281 19.214844 184.304688 C 18.660156 184.671875 18.160156 185.101562 17.722656 185.597656 C 17.28125 186.09375 16.914062 186.640625 16.617188 187.234375 C 16.324219 187.832031 16.109375 188.453125 15.980469 189.105469 C 15.851562 189.753906 15.808594 190.410156 15.851562 191.074219 C 15.84375 191.613281 15.929688 192.140625 16.101562 192.652344 C 16.277344 193.164062 16.53125 193.632812 16.863281 194.058594 C 17.199219 194.484375 17.59375 194.839844 18.050781 195.128906 C 18.507812 195.417969 19 195.621094 19.527344 195.742188 C 21.660156 196.132812 20.757812 199.390625 18.628906 199 C 11.890625 197.796875 10.957031 188.566406 14.636719 183.992188 C 17.351562 180.734375 21.210938 179.097656 25.082031 178.078125 C 29.914062 176.800781 34.898438 176.007812 39.804688 175.074219 C 49.078125 173.425781 58.398438 171.925781 67.765625 170.769531 C 76.769531 169.703125 86.253906 168.335938 95.257812 169.539062 C 102.644531 170.511719 109.742188 174.039062 112.921875 181.167969 C 113.632812 182.679688 114.054688 184.269531 114.179688 185.933594 C 114.308594 187.597656 114.132812 189.234375 113.660156 190.835938 C 114.6875 190 115.820312 189.351562 117.0625 188.886719 C 118.300781 188.421875 119.582031 188.164062 120.90625 188.117188 C 122.839844 188.054688 124.75 188.226562 126.640625 188.644531 C 128.421875 188.847656 130.140625 189.300781 131.789062 190.007812 C 136.847656 192.648438 137.671875 200.816406 138.0625 205.828125 C 138.351562 208.898438 138.253906 211.960938 137.773438 215.011719 C 137.292969 218.058594 136.445312 221 135.226562 223.835938 C 130.722656 233.742188 119.917969 240.765625 108.960938 238.246094 C 108.714844 238.191406 108.488281 238.09375 108.285156 237.945312 C 107.234375 242.867188 105.75 248.269531 102.28125 251.886719 C 98.246094 256.089844 91.777344 258.386719 86.238281 259.496094 C 79.816406 260.585938 73.367188 260.757812 66.894531 260.007812 C 60.375 259.546875 53.917969 258.652344 47.519531 257.320312 C 46.746094 257.152344 45.992188 256.929688 45.253906 256.660156 C 45.253906 256.878906 45.214844 257.09375 45.132812 257.300781 C 45.054688 257.507812 44.941406 257.691406 44.792969 257.855469 C 44.644531 258.019531 44.472656 258.152344 44.273438 258.25 C 44.074219 258.351562 43.867188 258.410156 43.644531 258.429688 C 41.792969 258.507812 40.105469 259.085938 38.589844 260.15625 C 37.371094 261.222656 39.175781 261.925781 40.210938 262.316406 C 43.238281 263.394531 46.347656 264.167969 49.53125 264.628906 C 56.195312 265.71875 62.898438 266.050781 69.640625 265.632812 C 76.433594 265.21875 83.183594 264.414062 89.886719 263.21875 C 93.039062 262.675781 96.21875 262.167969 99.3125 261.328125 C 100.882812 261.085938 102.351562 260.550781 103.707031 259.722656 C 105.628906 258.039062 102.207031 257.230469 100.871094 256.960938 C 98.753906 256.523438 99.65625 253.265625 101.773438 253.703125 C 104.667969 254.316406 108.40625 256.089844 107.671875 259.707031 C 106.996094 263.054688 102.3125 264.042969 99.550781 264.75 C 92.542969 266.40625 85.453125 267.578125 78.285156 268.261719 C 71.058594 269.160156 63.816406 269.359375 56.554688 268.859375 C 53.097656 268.585938 49.675781 268.085938 46.289062 267.359375 C 43.285156 266.714844 39.460938 266.144531 36.847656 264.285156 C 34.898438 262.902344 33.769531 260.410156 35.496094 258.28125 C 36.402344 257.378906 37.433594 256.652344 38.589844 256.109375 C 39.75 255.5625 40.960938 255.226562 42.234375 255.097656 C 39.199219 253.242188 36.539062 250.953125 34.25 248.226562 C 34.234375 248.425781 34.183594 248.613281 34.097656 248.796875 C 34.011719 248.976562 33.894531 249.136719 33.75 249.273438 C 33.605469 249.414062 33.4375 249.523438 33.253906 249.597656 C 33.070312 249.675781 32.875 249.71875 32.675781 249.726562 C 30.957031 249.828125 29.269531 250.105469 27.609375 250.5625 C 25.949219 251.019531 24.355469 251.640625 22.824219 252.429688 C 21.292969 253.214844 19.863281 254.152344 18.527344 255.242188 C 17.195312 256.328125 15.988281 257.542969 14.90625 258.878906 C 12.851562 261.445312 10.402344 265.394531 12.445312 268.636719 C 13.945312 270.992188 16.945312 271.984375 19.46875 272.597656 C 22.671875 273.257812 25.902344 273.726562 29.164062 273.992188 C 33.035156 274.457031 36.9375 274.847656 40.824219 275.195312 C 48.378906 275.875 55.941406 276.375 63.515625 276.695312 C 76.695312 277.175781 90.035156 277.085938 103.046875 274.714844 C 109.292969 273.585938 115.363281 271.839844 121.253906 269.476562 C 124.234375 268.308594 127.121094 266.941406 129.914062 265.378906 C 132.707031 263.949219 135.277344 262.191406 137.625 260.109375 C 143.449219 254.421875 135.179688 249.605469 130.257812 247.789062 C 123.273438 245.335938 116.09375 244.441406 108.722656 245.101562 C 106.542969 245.296875 106.558594 241.921875 108.722656 241.726562 C 113.269531 241.269531 117.796875 241.421875 122.308594 242.1875 C 126.816406 242.949219 131.140625 244.296875 135.285156 246.230469 C 136.886719 246.925781 138.3125 247.882812 139.5625 249.097656 C 140.816406 250.316406 141.808594 251.714844 142.550781 253.296875 C 142.816406 254.105469 142.957031 254.9375 142.976562 255.789062 C 143 256.640625 142.894531 257.472656 142.664062 258.292969 C 142.4375 259.113281 142.09375 259.882812 141.636719 260.601562 C 141.179688 261.320312 140.628906 261.957031 139.984375 262.511719 Z M 110.085938 227.542969 C 113.523438 229.195312 117.589844 227.902344 120.414062 225.367188 C 123.667969 222.367188 125.546875 218.058594 126.957031 213.929688 C 128.367188 209.804688 129.3125 204.507812 125.453125 201.25 C 125.070312 200.929688 124.65625 200.65625 124.214844 200.425781 C 123.769531 200.191406 123.308594 200.007812 122.828125 199.875 C 122.347656 199.738281 121.859375 199.65625 121.359375 199.621094 C 120.859375 199.589844 120.363281 199.605469 119.871094 199.679688 C 119.375 199.75 118.894531 199.871094 118.425781 200.039062 C 117.957031 200.210938 117.507812 200.429688 117.085938 200.695312 C 116.660156 200.960938 116.269531 201.265625 115.910156 201.609375 C 115.550781 201.957031 115.230469 202.335938 114.949219 202.75 C 114.851562 202.867188 114.742188 202.972656 114.621094 203.0625 C 114.5 203.152344 114.367188 203.226562 114.226562 203.285156 C 114.085938 203.339844 113.941406 203.378906 113.789062 203.402344 C 113.640625 203.421875 113.488281 203.425781 113.335938 203.410156 C 113.183594 203.394531 113.039062 203.359375 112.894531 203.304688 C 112.753906 203.253906 112.621094 203.183594 112.496094 203.097656 C 112.371094 203.011719 112.257812 202.910156 112.15625 202.796875 C 112.054688 202.679688 111.972656 202.554688 111.902344 202.421875 C 111.226562 210.78125 111.0625 219.199219 110.085938 227.542969 Z M 109.621094 230.996094 C 109.425781 232.347656 109.1875 233.683594 108.929688 235.019531 C 109.257812 234.921875 109.582031 234.921875 109.90625 235.019531 C 111.300781 235.292969 112.707031 235.410156 114.125 235.371094 C 115.546875 235.328125 116.945312 235.128906 118.320312 234.773438 C 119.691406 234.414062 121.011719 233.910156 122.269531 233.253906 C 123.53125 232.597656 124.703125 231.8125 125.785156 230.890625 C 128.105469 228.921875 130.011719 226.605469 131.496094 223.949219 C 132.980469 221.292969 133.953125 218.457031 134.414062 215.449219 C 135.511719 209.445312 135.285156 201.640625 132.597656 195.9375 C 132.339844 195.195312 131.9375 194.542969 131.386719 193.980469 C 130.839844 193.417969 130.199219 193 129.460938 192.726562 C 127.621094 192.171875 125.746094 191.804688 123.835938 191.628906 C 120.710938 191.285156 117.46875 191.628906 115.234375 194.074219 C 115.09375 194.253906 114.917969 194.390625 114.714844 194.488281 C 114.507812 194.589844 114.292969 194.636719 114.0625 194.636719 C 113.835938 194.636719 113.621094 194.589844 113.414062 194.488281 C 113.210938 194.390625 113.035156 194.253906 112.894531 194.074219 C 112.546875 196.433594 112.277344 198.804688 112.066406 201.191406 L 112.066406 201.054688 C 112.390625 200.570312 112.75 200.113281 113.144531 199.6875 C 113.539062 199.261719 113.96875 198.871094 114.425781 198.515625 C 114.886719 198.160156 115.371094 197.84375 115.882812 197.566406 C 116.394531 197.289062 116.925781 197.054688 117.476562 196.867188 C 118.023438 196.675781 118.585938 196.53125 119.15625 196.429688 C 119.730469 196.332031 120.308594 196.28125 120.890625 196.273438 C 121.472656 196.269531 122.050781 196.3125 122.625 196.402344 C 123.199219 196.492188 123.761719 196.625 124.3125 196.808594 C 125.316406 197.179688 126.246094 197.6875 127.101562 198.324219 C 127.957031 198.964844 128.707031 199.710938 129.347656 200.5625 C 129.992188 201.417969 130.5 202.34375 130.878906 203.34375 C 131.253906 204.34375 131.484375 205.378906 131.5625 206.441406 C 131.96875 211.183594 129.957031 216.136719 127.945312 220.339844 C 126.085938 224.242188 123.445312 228.085938 119.421875 230.082031 C 117.917969 230.894531 116.316406 231.382812 114.617188 231.542969 C 112.914062 231.703125 111.25 231.519531 109.621094 230.996094 Z M 38.722656 248.136719 C 40.574219 250.230469 42.765625 251.878906 45.296875 253.074219 C 48.082031 254.058594 50.945312 254.703125 53.882812 255.007812 C 65.707031 256.855469 78.898438 258.820312 90.484375 254.828125 C 93.328125 253.910156 95.964844 252.585938 98.394531 250.851562 C 100.597656 249.066406 102.132812 246.824219 103.003906 244.128906 C 104.933594 238.5625 106.183594 232.851562 106.753906 226.988281 C 107.867188 217.261719 107.957031 207.476562 109.007812 197.738281 C 108.644531 198.039062 108.285156 198.324219 107.894531 198.59375 C 101.816406 202.945312 93.652344 204.085938 86.492188 205.363281 C 77.109375 207.035156 67.652344 208.101562 58.128906 208.558594 C 48.753906 209.011719 39.390625 208.855469 30.035156 208.09375 C 26.117188 207.761719 21.328125 207.507812 17.621094 205.707031 C 18.476562 211.007812 19.855469 216.171875 21.75 221.199219 C 23.644531 226.222656 26.019531 231.011719 28.878906 235.558594 C 31.722656 240.09375 35.003906 244.285156 38.722656 248.136719 Z M 38.722656 248.136719 " fill-opacity="1" fill-rule="nonzero"/></g><g clip-path="url(#b9c673b3cc)"><g clip-path="url(#15fadec516)"><g clip-path="url(#12627785fd)"><path fill="#44332e" d="M 229.984375 37.234375 L 533.957031 65.347656 L 513.855469 282.714844 L 209.882812 254.601562 Z M 229.984375 37.234375 " fill-opacity="1" fill-rule="nonzero"/></g></g></g><g clip-path="url(#5d098eb04d)"><g clip-path="url(#e79618f4da)"><g clip-path="url(#6eacc3dd46)"><path fill="#44332e" d="M 217.542969 37.953125 L 273.039062 40.6875 L 263.363281 237.304688 L 207.867188 234.574219 Z M 217.542969 37.953125 " fill-opacity="1" fill-rule="nonzero"/></g></g></g><g clip-path="url(#08f418eaad)"><path fill="#f0ee8a" d="M 555.371094 82.222656 C 555.011719 74.398438 554.925781 66.089844 552.855469 58.515625 C 551.46875 53.164062 548.855469 48.066406 544.378906 44.617188 C 540.285156 41.726562 535.777344 39.785156 530.859375 38.796875 C 519.421875 36.015625 507.820312 33.722656 496.273438 31.445312 C 448.167969 21.964844 399.671875 15.367188 350.78125 11.644531 C 326.519531 9.808594 302.214844 8.746094 277.871094 8.449219 C 265.828125 8.28125 253.785156 8.28125 241.742188 8.449219 C 235.597656 8.539062 229.457031 8.683594 223.316406 8.878906 C 217.9375 9.046875 211.65625 8.503906 206.640625 10.769531 C 201.625 13.035156 199.261719 18.0625 197.332031 22.761719 C 195.15625 28.105469 193.347656 33.574219 191.898438 39.15625 C 189.128906 50.289062 187.1875 61.5625 186.074219 72.980469 C 183.988281 92.171875 182.574219 111.429688 181.351562 130.703125 C 178.835938 170.308594 177.179688 210.105469 177.929688 249.792969 C 178.085938 257.894531 178.347656 266.007812 178.792969 274.09375 C 178.792969 275.289062 179.417969 277.152344 180.90625 277.136719 C 182.390625 277.125 182.90625 275.125 182.863281 274 C 181.265625 236.703125 182.585938 199.195312 184.503906 161.929688 C 185.476562 142.992188 186.75 124.066406 188.324219 105.148438 C 190.019531 84.765625 191.328125 63.796875 196.539062 43.910156 C 197.972656 38.339844 199.792969 32.898438 202 27.582031 C 203.75 23.414062 205.75 19.605469 210.546875 18.648438 C 213.144531 18.253906 215.753906 18.082031 218.382812 18.132812 L 227.21875 17.925781 C 233.378906 17.796875 239.527344 17.722656 245.660156 17.703125 C 269.503906 17.582031 293.347656 18.164062 317.183594 19.453125 C 365.109375 21.957031 412.742188 27.175781 460.074219 35.113281 C 471.886719 37.113281 483.667969 39.292969 495.425781 41.644531 C 506.917969 43.9375 518.492188 46.175781 529.84375 49.066406 C 534.125 50.164062 538.613281 51.523438 542.003906 54.5 C 545.394531 57.472656 546.476562 61.445312 547.144531 65.617188 C 547.988281 72.273438 548.453125 78.957031 548.535156 85.667969 C 549.660156 117.195312 548.257812 148.851562 546.476562 180.339844 C 546.253906 184.175781 546.035156 188.023438 545.796875 191.859375 C 545.796875 192.679688 545.699219 193.5 545.644531 194.320312 C 545.644531 194.570312 545.644531 194.972656 545.644531 195.070312 C 545.644531 195.527344 545.574219 196 545.546875 196.460938 C 545.421875 198.417969 545.296875 200.378906 545.15625 202.335938 C 544.714844 208.96875 544.25 215.601562 543.769531 222.234375 C 543.046875 231.585938 542.296875 240.953125 541.335938 250.292969 C 540.792969 255.695312 540.15625 261.074219 539.65625 266.480469 C 539.039062 275.300781 537.871094 284.042969 536.152344 292.714844 C 536.152344 292.8125 536.152344 292.898438 536.152344 292.964844 C 536.152344 293.035156 536.152344 293.105469 536.152344 293.203125 C 536.027344 293.632812 535.917969 294.078125 535.792969 294.507812 C 535.542969 295.34375 535.277344 296.160156 534.972656 296.96875 C 534.832031 297.34375 534.695312 297.730469 534.527344 298.109375 L 534.234375 298.773438 C 533.921875 299.378906 533.582031 299.96875 533.207031 300.539062 C 533.097656 300.707031 532.972656 300.859375 532.859375 301.011719 L 532.511719 301.414062 C 532.152344 301.757812 531.777344 302.082031 531.386719 302.386719 C 529.453125 303.675781 527.335938 304.5 525.035156 304.859375 C 520.011719 305.46875 515 305.386719 510 304.609375 C 503.898438 303.945312 497.800781 303.285156 491.714844 302.636719 C 444.355469 297.621094 396.902344 293.535156 349.421875 290.132812 C 301.9375 286.726562 254.679688 283.851562 207.28125 281.140625 C 195.578125 280.472656 183.878906 279.917969 172.179688 279.277344 C 169.664062 279.140625 168.496094 282.53125 168.386719 284.738281 C 168.234375 284.835938 168.097656 284.949219 167.980469 285.085938 C 144.011719 313.476562 119.347656 341.308594 95.433594 369.683594 C 89.121094 377.160156 79.757812 385.386719 82.5625 396.269531 C 85.34375 406.941406 97.308594 408.21875 106.449219 409.332031 C 118.789062 410.816406 131.253906 411.09375 143.664062 411.527344 L 181.03125 412.816406 L 330.523438 417.972656 L 405.253906 420.542969 L 442.632812 421.835938 C 453.417969 422.210938 464.296875 422.324219 472.273438 413.902344 C 478.332031 407.507812 482.308594 399.199219 487.046875 391.835938 C 491.976562 384.179688 497.09375 376.648438 502.21875 369.128906 C 512.808594 353.609375 523.578125 338.183594 533.457031 322.203125 C 535.515625 318.894531 537.292969 315.492188 539.195312 312.113281 C 539.703125 311.195312 540.011719 310.214844 540.125 309.171875 C 540.242188 308.128906 540.15625 307.105469 539.863281 306.097656 C 541.5625 302.585938 542.792969 298.917969 543.546875 295.09375 C 545.574219 286.074219 546.199219 276.75 547.046875 267.5625 C 547.894531 258.378906 548.9375 249.5 549.703125 240.382812 C 550.757812 227.738281 551.683594 215.085938 552.480469 202.421875 C 554.59375 169.585938 556.246094 136.652344 556.066406 103.757812 C 555.84375 96.5625 555.703125 89.390625 555.371094 82.222656 Z M 520.703125 324.980469 C 515.65625 332.679688 510.488281 340.269531 505.289062 347.867188 C 495.398438 362.347656 485.324219 376.785156 476.21875 391.792969 C 471.621094 399.378906 467.3125 407.871094 457.835938 409.859375 C 452.722656 410.929688 447.332031 410.511719 442.148438 410.332031 L 424.082031 409.746094 L 351.144531 407.34375 L 206.222656 402.589844 C 182.082031 401.792969 157.945312 400.996094 133.8125 400.199219 C 122.152344 399.8125 110.273438 399.476562 98.765625 397.421875 C 95.304688 396.78125 91.386719 395.710938 89.136719 392.933594 C 89.277344 393.101562 88.902344 392.335938 88.914062 392.683594 C 88.976562 391.886719 89.222656 391.148438 89.652344 390.472656 C 90.914062 388.308594 92.339844 386.25 93.917969 384.304688 C 104.4375 369.839844 116.152344 356.191406 127.503906 342.378906 C 139.398438 327.941406 151.5 313.585938 162.910156 298.761719 C 165.175781 295.816406 167.414062 292.839844 169.648438 289.851562 C 169.960938 290.269531 170.347656 290.601562 170.804688 290.84375 C 171.265625 291.085938 171.757812 291.21875 172.277344 291.242188 C 220.996094 293.910156 269.726562 296.59375 318.433594 299.746094 C 366.402344 302.859375 414.3125 306.5 462.214844 311.058594 C 474.554688 312.226562 486.898438 313.460938 499.246094 314.769531 C 505.011719 315.367188 510.792969 316.160156 516.589844 316.492188 C 519.984375 316.71875 523.351562 316.5 526.691406 315.839844 C 524.703125 318.921875 522.6875 321.964844 520.703125 324.980469 Z M 209.292969 231.742188 C 210.683594 237.078125 212.976562 242.34375 217.019531 246.109375 C 217.523438 247.882812 218.257812 249.554688 219.230469 251.125 C 220.199219 252.691406 221.367188 254.09375 222.730469 255.335938 C 225.214844 257.417969 227.992188 258.964844 231.070312 259.976562 C 238.015625 262.4375 245.703125 262.757812 253.011719 263.507812 C 271.234375 265.359375 289.460938 267.269531 307.691406 269.230469 C 344.195312 273.054688 380.714844 276.804688 417.289062 280 C 435.445312 281.605469 453.617188 283.035156 471.800781 284.296875 C 476.429688 284.613281 481.054688 284.933594 485.699219 285.210938 C 489.230469 285.496094 492.761719 285.445312 496.285156 285.058594 C 500.160156 284.636719 503.714844 283.335938 506.945312 281.15625 C 508.613281 279.886719 510.074219 278.417969 511.328125 276.738281 C 512.582031 275.0625 513.578125 273.246094 514.324219 271.289062 C 516.921875 265.175781 517.824219 258.183594 518.992188 251.679688 C 520.160156 245.179688 521.105469 238.980469 522.007812 232.617188 C 524.050781 218.066406 525.664062 203.433594 527.039062 188.832031 C 528.558594 172.644531 529.785156 156.433594 530.71875 140.195312 C 531.636719 124.5625 532.539062 108.875 532.707031 93.199219 C 532.761719 91.03125 532.613281 88.875 532.269531 86.734375 C 531.921875 84.589844 531.378906 82.5 530.640625 80.460938 C 529.90625 78.417969 528.984375 76.464844 527.882812 74.59375 C 526.785156 72.726562 525.519531 70.972656 524.09375 69.339844 C 519.285156 64.140625 512.335938 61.585938 505.554688 60.15625 C 497.34375 58.363281 489.003906 57.542969 480.777344 56.429688 C 471.441406 55.171875 462.140625 53.960938 452.875 52.804688 C 416.039062 48.175781 379.117188 44.300781 342.097656 41.507812 C 323.46875 40.070312 304.808594 38.941406 286.125 38.117188 C 276.859375 37.726562 267.597656 37.410156 258.332031 37.171875 C 249.871094 36.949219 241.058594 36.171875 232.820312 38.558594 C 218.230469 42.730469 212.851562 58.152344 211.046875 71.714844 C 209.949219 80.054688 209.65625 88.503906 209.183594 96.882812 C 208.644531 106.144531 208.183594 115.449219 207.792969 124.796875 C 207.144531 143.390625 206.851562 162.007812 206.917969 180.644531 C 206.917969 190.066406 207.070312 199.503906 207.347656 208.9375 C 207.53125 216.511719 207.417969 224.347656 209.292969 231.742188 Z M 225.789062 243.511719 C 225.957031 243.707031 226.273438 244.175781 225.789062 243.511719 Z M 213.589844 149.78125 C 214.003906 131.71875 214.761719 113.652344 215.851562 95.589844 C 216.3125 88.125 216.617188 80.582031 217.703125 73.175781 C 218.589844 67.117188 219.855469 61.667969 223.191406 56.625 C 224.660156 54.386719 226.511719 52.535156 228.75 51.066406 C 231.949219 49.109375 235.417969 47.953125 239.15625 47.605469 C 247.371094 46.660156 255.832031 47.453125 264.167969 47.730469 C 282.261719 48.34375 300.328125 49.238281 318.363281 50.414062 C 354.214844 52.804688 390.066406 56.167969 425.792969 60.347656 C 443.664062 62.441406 461.515625 64.722656 479.347656 67.1875 C 487.324219 68.285156 495.425781 69.101562 503.316406 70.742188 C 509.5 72.035156 515.824219 74.007812 520.230469 78.675781 C 521.089844 79.757812 521.878906 80.886719 522.589844 82.066406 C 522.828125 82.511719 523.273438 83.457031 523.535156 84.097656 C 523.800781 84.734375 523.898438 84.984375 524.0625 85.488281 L 524.3125 86.222656 C 524.3125 86.320312 524.3125 86.445312 524.425781 86.625 C 524.648438 87.472656 524.828125 88.308594 524.980469 89.167969 C 525.050781 89.601562 525.121094 90.03125 525.175781 90.460938 L 525.175781 90.824219 C 525.273438 92.699219 525.175781 94.574219 525.175781 96.449219 C 524.953125 104.039062 524.660156 111.628906 524.300781 119.226562 C 524.121094 122.9375 523.925781 126.632812 523.714844 130.34375 C 523.589844 132.316406 523.480469 134.273438 523.355469 136.25 C 523.285156 137.472656 523.175781 139.179688 523.035156 141.238281 C 522.515625 148.933594 521.9375 156.632812 521.296875 164.332031 C 518.976562 192.222656 516.046875 220.164062 511.085938 247.707031 C 510.585938 250.484375 510.070312 253.265625 509.5 256.042969 C 509.210938 257.503906 508.875 258.949219 508.570312 260.40625 C 508.566406 260.445312 508.566406 260.480469 508.570312 260.519531 C 508.570312 260.589844 508.570312 260.65625 508.5 260.753906 C 508.390625 261.101562 508.304688 261.449219 508.195312 261.8125 C 507.875 262.855469 507.484375 263.855469 507.109375 264.882812 L 506.917969 265.3125 C 506.792969 265.550781 506.679688 265.785156 506.542969 266.007812 C 506.277344 266.464844 505.984375 266.910156 505.707031 267.398438 L 505.414062 267.816406 C 504.503906 268.953125 503.410156 269.878906 502.136719 270.59375 C 499.195312 272.074219 496.078125 272.800781 492.785156 272.773438 C 484.820312 273.109375 476.722656 272.066406 468.785156 271.511719 C 459.929688 270.898438 451.082031 270.230469 442.246094 269.511719 C 406.699219 266.660156 371.195312 263.1875 335.71875 259.519531 C 318.183594 257.664062 300.644531 255.8125 283.109375 253.960938 L 256.707031 251.179688 L 243.714844 249.792969 C 240.84375 249.546875 238.019531 249.050781 235.238281 248.304688 C 233.902344 247.949219 232.589844 247.519531 231.304688 247.011719 C 230.609375 246.71875 229.914062 246.414062 229.277344 246.082031 L 228.75 245.789062 C 228.886719 245.789062 228.109375 245.402344 228.054688 245.359375 C 227.570312 245.042969 227.109375 244.699219 226.664062 244.332031 C 226.359375 244.066406 226.082031 243.789062 225.789062 243.511719 C 225.496094 243.234375 224.996094 242.289062 224.925781 242.261719 C 224.648438 241.578125 224.289062 240.578125 224.621094 241.773438 C 223.996094 239.5625 222.300781 236.285156 219.453125 237.519531 C 219.0625 237.695312 218.71875 237.9375 218.425781 238.242188 C 216.070312 234.628906 214.679688 230.671875 214.253906 226.378906 C 213.214844 219.679688 213.476562 211.3125 213.40625 203.976562 C 213.199219 185.898438 213.183594 167.847656 213.589844 149.78125 Z M 463.003906 321.773438 C 418.136719 318.785156 373.363281 314.65625 328.492188 311.765625 C 306.261719 310.378906 283.929688 309.195312 261.625 308.988281 C 250.59375 308.859375 239.558594 308.941406 228.527344 309.238281 C 222.894531 309.394531 217.265625 309.613281 211.644531 309.890625 C 206.511719 310 201.414062 310.496094 196.359375 311.378906 C 190.972656 312.339844 186.003906 314.332031 181.445312 317.351562 C 177.605469 320.050781 174.21875 323.230469 171.289062 326.898438 C 165.160156 334.5 160.964844 343.476562 157.394531 352.480469 C 157.207031 352.949219 157.152344 353.433594 157.230469 353.929688 C 157.308594 354.425781 157.507812 354.871094 157.824219 355.261719 C 157.988281 355.4375 158.1875 355.554688 158.425781 355.609375 C 158.660156 355.660156 158.890625 355.644531 159.117188 355.554688 C 158.28125 358.636719 159.421875 363.042969 162.464844 363.070312 C 206.277344 363.363281 250.078125 364.195312 293.878906 365.851562 C 315.546875 366.636719 337.203125 367.5625 358.84375 368.628906 C 369.664062 369.15625 380.488281 369.722656 391.316406 370.324219 C 396.875 370.628906 402.394531 370.949219 407.878906 371.285156 C 412.980469 371.589844 418.136719 372.160156 423.234375 371.976562 C 425.859375 371.964844 428.40625 371.507812 430.871094 370.605469 C 433.339844 369.707031 435.578125 368.410156 437.589844 366.726562 C 442.007812 362.917969 445.816406 358.222656 449.789062 353.96875 C 453.765625 349.71875 457.949219 345.632812 461.503906 341.03125 C 465.0625 336.433594 467.4375 330.695312 465.867188 324.871094 C 465.382812 323.441406 464.660156 321.882812 463.003906 321.773438 Z M 438.769531 328.332031 C 436.113281 331.917969 433.40625 335.453125 430.65625 338.949219 C 423.261719 338.835938 415.871094 338.390625 408.492188 337.753906 C 410.296875 334 412.023438 330.207031 413.632812 326.371094 Z M 390.136719 324.578125 L 408.726562 325.96875 C 406.8125 329.765625 404.796875 333.5 402.683594 337.167969 C 396.625 336.558594 390.582031 335.847656 384.535156 335.085938 C 386.230469 332.136719 387.925781 329.179688 389.636719 326.246094 C 389.917969 325.726562 390.082031 325.171875 390.121094 324.578125 Z M 353.714844 324.886719 C 354.207031 323.949219 354.414062 322.953125 354.339844 321.898438 C 364.726562 322.648438 375.101562 323.425781 385.464844 324.230469 C 383.214844 327.605469 380.972656 330.984375 378.742188 334.375 C 369.332031 333.167969 359.925781 331.929688 350.519531 330.914062 C 351.546875 328.902344 352.601562 326.886719 353.699219 324.886719 Z M 299.839844 318.605469 C 316.308594 319.367188 332.746094 320.382812 349.183594 321.535156 C 347.574219 324.441406 346.003906 327.371094 344.445312 330.304688 C 343.054688 330.179688 341.667969 330.039062 340.359375 329.929688 C 335.523438 329.527344 330.632812 329.207031 325.839844 329.011719 C 326.410156 327.984375 326.949219 326.941406 327.535156 325.925781 C 327.894531 325.289062 328.0625 324.605469 328.042969 323.875 C 328.023438 323.144531 327.816406 322.472656 327.421875 321.855469 C 327.292969 321.609375 327.105469 321.414062 326.867188 321.273438 C 326.628906 321.128906 326.367188 321.058594 326.089844 321.058594 C 325.8125 321.058594 325.550781 321.128906 325.3125 321.273438 C 325.074219 321.414062 324.886719 321.609375 324.753906 321.855469 C 323.367188 324.148438 321.976562 326.441406 320.585938 328.804688 C 318.378906 328.804688 316.152344 328.71875 313.945312 328.804688 C 308.039062 328.804688 302.160156 329.179688 296.28125 329.625 C 297.503906 327.324219 298.695312 325.011719 299.855469 322.675781 C 300.191406 322.039062 300.359375 321.359375 300.351562 320.636719 C 300.347656 319.914062 300.171875 319.238281 299.828125 318.605469 Z M 256.945312 317.3125 C 270.253906 317.464844 283.554688 317.882812 296.851562 318.464844 C 294.796875 322.382812 292.636719 326.238281 290.378906 330.027344 L 286.582031 330.347656 C 278.621094 331 270.660156 331.25 262.683594 331.304688 C 263.792969 329.136719 264.910156 326.96875 266.03125 324.800781 C 266.429688 324.082031 266.621094 323.308594 266.601562 322.488281 C 266.582031 321.664062 266.355469 320.902344 265.921875 320.203125 C 265.769531 319.925781 265.558594 319.703125 265.285156 319.542969 C 265.015625 319.382812 264.722656 319.300781 264.40625 319.300781 C 264.089844 319.300781 263.796875 319.382812 263.523438 319.542969 C 263.253906 319.703125 263.042969 319.925781 262.890625 320.203125 C 260.960938 323.914062 258.972656 327.582031 256.972656 331.234375 C 248.632812 331.234375 240.296875 330.957031 231.957031 330.695312 L 227.875 330.554688 C 229.484375 327.582031 231.097656 324.59375 232.738281 321.632812 C 233.121094 320.960938 233.304688 320.238281 233.289062 319.464844 C 233.269531 318.691406 233.054688 317.980469 232.640625 317.324219 C 240.753906 317.234375 248.855469 317.226562 256.945312 317.3125 Z M 205.527344 318.394531 L 207.613281 318.257812 C 213.03125 317.949219 218.453125 317.757812 223.886719 317.601562 L 229.777344 317.464844 C 227.261719 321.8125 224.746094 326.148438 222.191406 330.457031 C 214.976562 330.25 207.765625 330.054688 200.566406 329.972656 L 205.195312 320.8125 C 205.585938 320.046875 205.699219 319.238281 205.527344 318.394531 Z M 180.890625 325.34375 C 184.609375 322.839844 188.652344 321.09375 193.023438 320.105469 C 196.0625 319.410156 199.140625 318.949219 202.25 318.714844 C 200.035156 322.46875 197.832031 326.222656 195.636719 329.984375 C 188.9375 329.984375 182.226562 329.984375 175.527344 330.191406 C 177.164062 328.386719 178.964844 326.757812 180.917969 325.300781 Z M 184.683594 352.953125 C 177.152344 352.816406 169.625 352.699219 162.105469 352.605469 C 161.605469 352.617188 161.140625 352.75 160.714844 353.011719 C 163.933594 346.570312 167.640625 340.425781 171.832031 334.570312 C 178.640625 335.117188 185.449219 335.523438 192.257812 335.792969 L 188.589844 342.171875 C 186.9375 345.035156 184.53125 348.007812 184.421875 351.398438 C 184.410156 351.933594 184.5 352.453125 184.683594 352.953125 Z M 306.773438 356.484375 C 282.316406 355.484375 257.847656 354.671875 233.363281 354.050781 C 218.511719 353.625 203.640625 353.261719 188.742188 352.953125 C 189.25 352.117188 189.714844 351.253906 190.132812 350.371094 L 192.214844 346.339844 L 196.550781 338.003906 C 196.914062 337.320312 197.246094 336.613281 197.609375 335.960938 C 204.652344 336.210938 211.699219 336.347656 218.742188 336.460938 L 217.632812 338.351562 C 216.160156 340.824219 214.339844 343.28125 213.699219 346.117188 C 213.269531 347.980469 214.824219 351.746094 217.117188 349.925781 C 218.128906 348.839844 218.898438 347.601562 219.425781 346.214844 L 221.230469 342.839844 L 224.621094 336.5 L 225.46875 336.5 C 234.917969 336.613281 244.382812 336.933594 253.84375 337.042969 C 253.191406 338.210938 252.550781 339.378906 251.914062 340.546875 C 250.421875 342.914062 249.097656 345.375 247.9375 347.925781 C 247.625 348.765625 247.535156 349.632812 247.671875 350.519531 C 247.8125 351.410156 248.160156 352.207031 248.71875 352.914062 C 248.824219 353.042969 248.945312 353.15625 249.078125 353.253906 C 249.214844 353.351562 249.359375 353.433594 249.515625 353.496094 C 249.667969 353.558594 249.828125 353.601562 249.996094 353.625 C 250.160156 353.644531 250.328125 353.648438 250.492188 353.628906 C 250.660156 353.609375 250.820312 353.574219 250.976562 353.511719 C 251.132812 353.453125 251.28125 353.378906 251.417969 353.28125 C 251.554688 353.1875 251.679688 353.078125 251.789062 352.949219 C 251.898438 352.824219 251.992188 352.6875 252.066406 352.539062 C 252.785156 351.355469 253.402344 350.125 253.914062 348.839844 L 255.484375 345.699219 C 256.660156 343.339844 257.835938 340.976562 259.015625 338.613281 L 259.792969 337.085938 C 266.628906 337.085938 273.464844 336.917969 280.273438 336.40625 C 282.429688 336.25 284.582031 336.070312 286.734375 335.890625 C 284.445312 339.433594 282.027344 342.90625 279.441406 346.269531 C 279.183594 346.707031 278.996094 347.171875 278.867188 347.660156 C 278.742188 348.152344 278.6875 348.648438 278.699219 349.15625 C 278.710938 349.660156 278.796875 350.15625 278.949219 350.636719 C 279.101562 351.121094 279.316406 351.574219 279.59375 351.996094 C 279.789062 352.335938 280.054688 352.605469 280.398438 352.796875 C 280.738281 352.992188 281.105469 353.082031 281.5 353.074219 C 281.890625 353.0625 282.253906 352.953125 282.585938 352.742188 C 282.917969 352.53125 283.171875 352.25 283.347656 351.898438 C 286.652344 346.433594 289.894531 340.921875 293.074219 335.363281 C 297.851562 334.960938 302.632812 334.613281 307.425781 334.460938 C 310.707031 334.363281 313.984375 334.363281 317.28125 334.460938 C 316.625 335.570312 315.960938 336.683594 315.320312 337.808594 C 313.820312 340.4375 312.34375 343.074219 310.886719 345.714844 C 309.371094 348.492188 307.164062 351.621094 306.71875 354.773438 C 306.65625 355.324219 306.683594 355.871094 306.800781 356.414062 Z M 365.609375 359.261719 C 363.929688 359.179688 362.261719 359.070312 360.578125 358.972656 C 344.25 358.066406 327.921875 357.316406 311.582031 356.621094 C 311.957031 355.902344 312.277344 355.109375 312.625 354.414062 L 314.542969 350.535156 C 315.902344 347.757812 317.292969 344.976562 318.710938 342.199219 C 320.042969 339.613281 321.402344 337.039062 322.78125 334.472656 C 326.574219 334.613281 330.382812 334.792969 334.175781 335.070312 C 336.648438 335.238281 339.109375 335.445312 341.570312 335.667969 C 340.667969 337.445312 339.75 339.226562 338.859375 341.019531 C 337.472656 343.542969 336.25 346.148438 335.191406 348.828125 C 334.851562 349.734375 334.757812 350.667969 334.90625 351.625 C 335.054688 352.582031 335.425781 353.441406 336.023438 354.207031 C 336.136719 354.347656 336.265625 354.472656 336.414062 354.578125 C 336.558594 354.6875 336.714844 354.777344 336.882812 354.84375 C 337.046875 354.914062 337.222656 354.960938 337.402344 354.984375 C 337.582031 355.007812 337.761719 355.011719 337.941406 354.992188 C 338.121094 354.96875 338.292969 354.925781 338.460938 354.863281 C 338.632812 354.796875 338.789062 354.710938 338.9375 354.605469 C 339.085938 354.5 339.214844 354.378906 339.332031 354.242188 C 339.449219 354.101562 339.546875 353.953125 339.625 353.789062 C 341.011719 351.300781 342.027344 348.492188 343.210938 345.882812 C 344.238281 343.617188 345.265625 341.378906 346.335938 339.140625 C 346.792969 338.183594 347.28125 337.222656 347.726562 336.265625 C 356.898438 337.222656 366.039062 338.417969 375.183594 339.613281 C 373.582031 342.089844 371.976562 344.558594 370.375 347.019531 L 367.707031 351.191406 C 366.433594 352.753906 365.613281 354.527344 365.25 356.511719 C 365.1875 357.457031 365.316406 358.375 365.636719 359.261719 Z M 389.136719 359.820312 C 389.105469 360.09375 389.105469 360.367188 389.136719 360.640625 L 370.195312 359.542969 C 370.753906 358.695312 371.269531 357.824219 371.738281 356.929688 L 374.113281 352.898438 L 379.378906 343.976562 C 380.0625 342.824219 380.769531 341.644531 381.410156 340.476562 L 387.035156 341.199219 C 391.207031 341.726562 395.304688 342.214844 399.433594 342.65625 C 398.042969 345.035156 396.542969 347.382812 395.011719 349.703125 C 392.96875 352.773438 389.746094 356.121094 389.164062 359.820312 Z M 413.285156 362.222656 L 408.253906 361.847656 L 395.347656 361.027344 L 395.832031 360.25 C 396.820312 358.722656 397.777344 357.191406 398.722656 355.636719 C 400.667969 352.453125 402.574219 349.214844 404.28125 345.910156 L 405.671875 343.28125 C 412.40625 343.949219 419.164062 344.441406 425.945312 344.757812 C 424.320312 346.742188 422.679688 348.730469 421.027344 350.691406 C 418.648438 353.46875 415.96875 356.109375 413.871094 359.097656 C 413.289062 360.070312 413.105469 361.109375 413.3125 362.222656 Z M 459.824219 331 C 458.734375 332.972656 457.398438 334.765625 455.820312 336.375 C 452.304688 340.183594 448.664062 343.878906 445.109375 347.632812 C 441.550781 351.382812 438.421875 355.136719 434.714844 358.429688 C 433.074219 359.820312 431.238281 360.875 429.210938 361.59375 C 427.183594 362.3125 425.09375 362.644531 422.945312 362.597656 C 421.652344 362.597656 420.34375 362.597656 419.039062 362.597656 C 420.816406 360.570312 422.414062 358.320312 424.042969 356.246094 C 426.335938 353.371094 428.570312 350.453125 430.796875 347.519531 L 432.617188 345.019531 C 437.257812 345.117188 441.898438 345.117188 446.511719 345.019531 C 449.289062 344.9375 449.136719 338.574219 446.359375 338.726562 C 443.230469 338.90625 440.117188 338.988281 437.019531 339.03125 C 439.242188 335.917969 441.429688 332.773438 443.578125 329.59375 C 443.730469 329.359375 443.839844 329.105469 443.898438 328.832031 C 449.332031 329.261719 454.765625 329.734375 460.199219 330.222656 C 460.085938 330.484375 459.960938 330.746094 459.824219 331 Z M 345.792969 202.28125 C 346.292969 203.378906 347.40625 204.171875 348.476562 203.269531 C 348.785156 203.003906 349.007812 202.679688 349.144531 202.296875 C 349.304688 202.566406 349.503906 202.800781 349.75 203 C 349.992188 203.199219 350.265625 203.351562 350.5625 203.453125 C 350.859375 203.554688 351.167969 203.601562 351.484375 203.59375 C 351.796875 203.585938 352.101562 203.523438 352.394531 203.40625 C 358.394531 200.789062 364.246094 197.871094 369.945312 194.652344 C 371.558594 198.359375 373.320312 202.015625 375.238281 205.628906 C 377.824219 210.464844 380.296875 215.496094 384.703125 218.914062 C 387.746094 221.277344 391.246094 220.304688 394.554688 218.914062 C 398.332031 217.367188 401.953125 215.511719 405.421875 213.355469 C 407.699219 211.96875 408.339844 208.9375 407.796875 206.410156 C 406.308594 199.65625 402.113281 193.5 399.125 187.34375 C 398.347656 185.71875 397.582031 184.078125 396.902344 182.410156 C 396.582031 181.632812 396.292969 180.828125 396.011719 180.035156 C 396.011719 179.949219 396.011719 179.910156 396.011719 179.855469 C 395.90625 179.519531 395.820312 179.183594 395.761719 178.839844 L 395.761719 178.644531 L 395.859375 178.546875 C 396.148438 178.25 396.453125 177.972656 396.777344 177.714844 L 397.429688 177.214844 L 397.542969 177.128906 L 397.652344 177.128906 C 401.820312 174.460938 406.558594 172.960938 409.089844 168.375 C 410.589844 165.707031 410.410156 161.261719 407.367188 159.703125 C 392.179688 151.976562 377.085938 144.042969 361.511719 137.179688 C 356.492188 134.984375 351.4375 132.859375 346.222656 131.050781 C 344.320312 130.398438 342.960938 132.550781 342.792969 134.179688 C 341.859375 143.070312 341.292969 151.714844 340.972656 160.578125 C 340.496094 170.101562 340.929688 179.585938 342.277344 189.023438 C 342.878906 193.59375 344.042969 198.011719 345.78125 202.28125 Z M 396.890625 200.792969 C 397.613281 202.183594 398.277344 203.65625 399 205.117188 C 397.25 206.0625 395.457031 206.964844 393.625 207.757812 L 393.152344 207.949219 C 393.46875 206.785156 393.570312 205.597656 393.457031 204.394531 C 393.011719 200.226562 392.636719 196.054688 392.289062 191.886719 C 393.75 194.957031 395.414062 197.933594 396.875 200.792969 Z M 396.136719 164.539062 C 396.695312 164.832031 397.238281 165.136719 397.777344 165.445312 C 396.773438 165.925781 395.796875 166.460938 394.847656 167.042969 C 393.414062 167.933594 392.160156 169.027344 391.082031 170.320312 C 390.996094 167.640625 390.914062 164.957031 390.886719 162.273438 C 390.886719 162.09375 390.886719 161.898438 390.886719 161.71875 Z M 378.894531 192.332031 C 379.378906 192.5 379.878906 192.570312 380.394531 192.539062 C 380.535156 194.679688 380.6875 196.820312 380.839844 198.945312 C 380.769531 198.820312 380.699219 198.667969 380.628906 198.53125 C 379.714844 196.792969 378.839844 195.027344 377.992188 193.25 C 378.320312 192.960938 378.617188 192.640625 378.878906 192.289062 Z M 376.710938 154.394531 C 375.777344 155.070312 375.027344 155.910156 374.460938 156.910156 C 373.890625 157.914062 373.558594 158.988281 373.460938 160.136719 C 373.460938 160.800781 373.320312 161.523438 373.265625 162.121094 L 369.582031 151.464844 C 369.480469 151.160156 369.351562 150.867188 369.195312 150.589844 C 371.714844 151.839844 374.214844 153.09375 376.699219 154.355469 Z M 366.164062 179.117188 C 366.25 178.644531 366.347656 178.171875 366.429688 177.726562 C 367.054688 179.757812 367.695312 181.785156 368.320312 183.8125 C 365.539062 185.203125 362.761719 186.59375 359.980469 187.984375 C 360.078125 186.84375 360.175781 185.71875 360.289062 184.578125 C 360.691406 184.730469 361.105469 184.8125 361.539062 184.8125 C 364.332031 184.648438 365.734375 181.394531 366.152344 179.074219 Z M 354.644531 150.074219 C 354.574219 151.382812 354.644531 149.65625 354.644531 149.53125 C 354.730469 148.519531 354.839844 147.503906 354.953125 146.488281 C 354.953125 146.265625 355.046875 145.363281 355.078125 144.890625 C 355.078125 145.085938 355.078125 144.976562 355.078125 144.488281 C 355.082031 144.355469 355.082031 144.21875 355.078125 144.085938 C 357.996094 145.402344 360.890625 146.738281 363.761719 148.101562 C 361.578125 148.921875 360.453125 151.492188 360.09375 153.660156 L 360.09375 153.953125 C 359.132812 151.921875 357.550781 150.144531 355.117188 150.699219 C 354.914062 150.746094 354.714844 150.804688 354.519531 150.878906 C 354.605469 150.5625 354.632812 150.296875 354.644531 150.074219 Z M 346.488281 149.296875 C 346.878906 146.449219 347.226562 143.597656 347.601562 140.75 L 349.269531 141.472656 C 349.085938 141.902344 348.726562 142.738281 348.683594 142.863281 C 348.390625 143.863281 348.101562 144.851562 347.835938 145.863281 C 347.234375 148.152344 346.769531 150.46875 346.445312 152.8125 C 345.78125 157.695312 345.445312 162.601562 345.433594 167.527344 C 345.433594 176.394531 346.308594 185.523438 349.601562 193.832031 C 348.835938 194.566406 348.335938 195.453125 348.101562 196.488281 C 346.015625 189.96875 345.597656 182.867188 345.40625 176.101562 C 345.027344 167.117188 345.386719 158.164062 346.488281 149.242188 Z M 293.574219 139.136719 C 293.488281 137.582031 294.253906 135.121094 296.128906 134.96875 C 298.722656 134.839844 301.3125 134.878906 303.898438 135.082031 C 305.367188 135.195312 306.828125 135.394531 308.273438 135.679688 L 309.996094 136.039062 C 310.699219 136.210938 311.351562 136.492188 311.957031 136.886719 C 312.601562 137.3125 313.085938 137.875 313.40625 138.578125 C 313.730469 139.277344 313.839844 140.011719 313.734375 140.777344 C 313.761719 141.128906 313.726562 141.476562 313.628906 141.816406 C 313.535156 142.15625 313.382812 142.472656 313.179688 142.761719 C 312.976562 143.050781 312.730469 143.296875 312.441406 143.5 C 312.152344 143.703125 311.839844 143.851562 311.5 143.945312 C 310.832031 144.058594 310.164062 144.058594 309.496094 143.945312 L 307.746094 143.722656 C 306.496094 143.585938 305.230469 143.433594 303.96875 143.308594 C 301.425781 143.046875 298.878906 142.945312 296.324219 143 C 294.378906 143.125 293.65625 140.597656 293.574219 139.082031 Z M 292.824219 176.28125 C 292.488281 174.894531 292.824219 172.726562 294.308594 172.015625 L 300.421875 169.015625 L 303.425781 167.625 C 303.9375 167.371094 304.460938 167.144531 304.996094 166.945312 C 305.628906 166.628906 306.300781 166.484375 307.011719 166.511719 C 307.714844 166.570312 308.261719 166.894531 308.648438 167.484375 C 308.953125 167.957031 309.160156 168.46875 309.277344 169.015625 C 309.433594 169.710938 309.429688 170.40625 309.261719 171.101562 C 309.089844 171.792969 308.777344 172.414062 308.316406 172.960938 C 307.34375 173.882812 306.21875 174.546875 304.941406 174.949219 C 303.925781 175.378906 302.898438 175.769531 301.882812 176.183594 L 295.671875 178.699219 C 294.113281 179.257812 293.074219 177.492188 292.824219 176.226562 Z M 311.707031 196.917969 L 314.277344 192.859375 L 315.570312 190.816406 C 315.777344 190.484375 316 190.164062 316.238281 189.84375 C 316.589844 189.269531 317.054688 188.808594 317.625 188.457031 L 318.015625 188.21875 C 318.292969 188.089844 318.585938 188.039062 318.890625 188.066406 C 319.195312 188.09375 319.476562 188.195312 319.726562 188.371094 C 320.210938 188.664062 320.570312 189.066406 320.808594 189.582031 C 321.15625 190.265625 321.355469 190.992188 321.414062 191.757812 C 321.46875 192.523438 321.375 193.269531 321.128906 194 C 320.933594 194.660156 320.648438 195.273438 320.265625 195.847656 C 320.042969 196.167969 319.824219 196.488281 319.574219 196.792969 L 318.183594 198.558594 L 315.402344 202.15625 C 315.152344 202.605469 314.796875 202.9375 314.332031 203.15625 L 313.667969 203.308594 C 313.296875 203.292969 312.953125 203.1875 312.636719 203 C 312.316406 202.808594 312.0625 202.558594 311.875 202.238281 C 311.351562 201.425781 311.089844 200.539062 311.082031 199.570312 C 311.035156 198.609375 311.242188 197.707031 311.707031 196.863281 Z M 330.785156 111.722656 C 330.730469 111.183594 330.730469 111.167969 330.785156 111.667969 Z M 324.128906 103.941406 C 323.917969 100.433594 323.953125 96.925781 324.226562 93.421875 C 324.324219 92.03125 325.449219 90.28125 327.007812 90.503906 C 328.5625 90.726562 329.425781 92.933594 329.367188 94.339844 C 329.21875 97.382812 329.28125 100.417969 329.550781 103.453125 C 329.550781 103.855469 329.550781 104.273438 329.660156 104.675781 C 329.667969 104.789062 329.667969 104.898438 329.660156 105.011719 C 329.742188 105.707031 329.855469 106.398438 329.964844 107.121094 C 330.078125 107.84375 330.230469 108.636719 330.371094 109.402344 C 330.4375 109.75 330.523438 110.097656 330.578125 110.457031 C 330.632812 110.820312 330.6875 111.320312 330.730469 111.765625 C 330.925781 113.445312 330.84375 115.570312 329.339844 116.628906 C 329.179688 116.714844 329.007812 116.777344 328.832031 116.824219 C 328.65625 116.871094 328.472656 116.898438 328.289062 116.902344 C 328.109375 116.90625 327.925781 116.890625 327.746094 116.851562 C 327.566406 116.816406 327.394531 116.757812 327.226562 116.679688 C 327.0625 116.601562 326.90625 116.507812 326.761719 116.394531 C 326.617188 116.28125 326.488281 116.152344 326.375 116.007812 C 326.261719 115.867188 326.164062 115.710938 326.085938 115.546875 C 326.007812 115.378906 325.949219 115.207031 325.910156 115.027344 C 324.855469 111.386719 324.265625 107.671875 324.128906 103.882812 Z M 367.554688 103.828125 C 367.917969 101.675781 368.667969 99.5625 369.222656 97.449219 C 369.777344 95.339844 370.238281 93.574219 370.75 91.628906 C 370.789062 91.390625 370.878906 91.175781 371.019531 90.976562 C 371.160156 90.78125 371.335938 90.628906 371.546875 90.515625 C 371.761719 90.402344 371.988281 90.339844 372.230469 90.335938 C 372.46875 90.328125 372.699219 90.375 372.917969 90.476562 C 373.390625 90.847656 373.726562 91.316406 373.925781 91.886719 C 374.128906 92.453125 374.164062 93.027344 374.03125 93.617188 C 373.628906 95.628906 373.238281 97.644531 372.835938 99.648438 C 372.433594 101.648438 372.140625 104.09375 371.445312 106.234375 C 371.097656 107.34375 369.945312 108.289062 368.820312 107.621094 C 368.257812 107.15625 367.859375 106.574219 367.632812 105.878906 C 367.402344 105.183594 367.378906 104.484375 367.554688 103.773438 Z M 402.113281 123.285156 C 401.480469 122.300781 401.164062 121.226562 401.15625 120.058594 C 401.121094 118.894531 401.390625 117.808594 401.960938 116.792969 C 403.640625 114.015625 405.574219 111.320312 407.421875 108.609375 C 407.636719 108.230469 407.925781 107.917969 408.285156 107.671875 C 408.648438 107.429688 409.046875 107.277344 409.480469 107.21875 C 409.917969 107.238281 410.328125 107.363281 410.703125 107.589844 C 411.082031 107.816406 411.382812 108.117188 411.605469 108.5 C 412.230469 109.457031 412.546875 110.507812 412.550781 111.652344 C 412.597656 112.800781 412.332031 113.871094 411.757812 114.863281 C 410.007812 117.640625 408.3125 120.421875 406.378906 123.199219 C 406.15625 123.582031 405.859375 123.890625 405.492188 124.136719 C 405.121094 124.378906 404.71875 124.53125 404.28125 124.589844 C 403.832031 124.566406 403.414062 124.4375 403.03125 124.203125 C 402.648438 123.96875 402.339844 123.65625 402.113281 123.269531 Z M 422.304688 138.304688 C 422.226562 137.902344 422.226562 137.5 422.304688 137.097656 C 422.300781 136.503906 422.402344 135.929688 422.609375 135.371094 L 423.070312 134.441406 L 423.417969 133.996094 C 423.683594 133.59375 423.996094 133.230469 424.359375 132.914062 L 425.179688 132.316406 L 426.835938 131.078125 C 427.265625 130.648438 427.78125 130.421875 428.390625 130.398438 L 429.210938 130.550781 C 429.792969 130.800781 430.253906 131.1875 430.601562 131.71875 L 431.101562 132.664062 C 431.347656 133.222656 431.488281 133.804688 431.515625 134.414062 C 431.628906 135.042969 431.628906 135.675781 431.515625 136.304688 C 431.453125 136.875 431.28125 137.410156 431.003906 137.914062 C 430.824219 138.394531 430.542969 138.804688 430.167969 139.152344 L 428.542969 140.542969 L 427.722656 141.210938 L 427.625 141.292969 L 426.890625 141.792969 L 426.667969 141.890625 L 426.238281 142.058594 C 425.855469 142.261719 425.457031 142.296875 425.042969 142.167969 C 424.597656 142.140625 424.21875 141.96875 423.902344 141.652344 L 423.277344 140.945312 L 422.789062 140.027344 C 422.519531 139.484375 422.359375 138.910156 422.304688 138.304688 Z M 355.203125 144.753906 C 355.210938 144.78125 355.210938 144.808594 355.203125 144.835938 C 355.160156 144.515625 355.171875 144.417969 355.144531 144.753906 Z M 355.203125 144.753906 " fill-opacity="1" fill-rule="nonzero"/></g><g clip-path="url(#d83846026e)"><g clip-path="url(#d5f74eb8c8)"><path fill="#44332e" d="M 240.453125 74.253906 L 490.777344 74.253906 L 490.777344 250.304688 L 240.453125 250.304688 Z M 240.453125 74.253906 " fill-opacity="1" fill-rule="nonzero"/></g></g><g clip-path="url(#b5f7490ca5)"><path fill="#f0ee8a" d="M 412.644531 160.582031 C 412.710938 153.777344 412.257812 147.011719 411.285156 140.277344 C 410.328125 133.601562 407.964844 127.464844 404.195312 121.871094 C 401.015625 117.40625 395.863281 112.460938 390.144531 111.996094 C 389.296875 111.925781 388.984375 112.878906 388.984375 113.808594 C 388.402344 112.890625 387.601562 112.246094 386.582031 111.882812 C 385.269531 111.550781 383.933594 111.394531 382.578125 111.417969 L 378.355469 111.171875 C 376.949219 111.101562 375.558594 111.082031 374.164062 111.035156 C 375.488281 107.449219 376.800781 103.851562 378.042969 100.242188 C 378.367188 99.371094 378.457031 98.480469 378.316406 97.5625 C 378.171875 96.644531 377.8125 95.820312 377.242188 95.089844 C 377.132812 94.953125 377.007812 94.828125 376.871094 94.722656 C 376.730469 94.613281 376.578125 94.527344 376.417969 94.460938 C 376.253906 94.390625 376.085938 94.34375 375.914062 94.320312 C 375.738281 94.292969 375.5625 94.292969 375.390625 94.3125 C 375.214844 94.332031 375.046875 94.375 374.882812 94.4375 C 374.71875 94.5 374.5625 94.582031 374.421875 94.683594 C 374.277344 94.789062 374.152344 94.90625 374.039062 95.042969 C 373.925781 95.179688 373.832031 95.324219 373.757812 95.484375 L 364.476562 110.859375 C 360.820312 110.859375 357.175781 110.859375 353.523438 111.035156 C 342.410156 111.441406 331.363281 112.519531 320.382812 114.269531 C 315.601562 115.046875 309.9375 115.433594 305.921875 118.460938 C 301.90625 121.488281 300.769531 127.011719 300.167969 131.597656 C 298.71875 142.433594 301.433594 153.433594 304.402344 163.808594 C 307.316406 174.042969 311.011719 183.980469 315.496094 193.628906 C 315.714844 194.117188 315.960938 194.605469 316.191406 195.09375 C 315.476562 195.640625 314.9375 196.328125 314.574219 197.152344 C 314.210938 197.976562 314.070312 198.835938 314.148438 199.734375 C 314.253906 201.613281 315.171875 204.804688 317.632812 204.722656 C 319.8125 204.722656 321.984375 204.503906 324.164062 204.304688 C 324.207031 205.089844 324.429688 205.816406 324.828125 206.492188 C 325.226562 207.167969 325.761719 207.710938 326.425781 208.125 C 346.816406 220.203125 373.097656 219.308594 394.808594 211.535156 C 397.582031 210.550781 400.296875 209.355469 402.933594 208.054688 C 404.398438 207.441406 405.6875 206.566406 406.800781 205.429688 C 407.914062 204.296875 408.765625 202.988281 409.347656 201.511719 C 410.398438 198.347656 411.085938 195.113281 411.414062 191.796875 C 411.925781 188.316406 412.226562 184.71875 412.4375 181.167969 C 412.839844 174.320312 412.75 167.429688 412.644531 160.582031 Z M 310.53125 170.503906 C 309.042969 165.757812 307.757812 160.953125 306.597656 156.113281 C 305.367188 151.386719 304.539062 146.589844 304.101562 141.726562 C 303.636719 137.082031 304.125 132.542969 305.5625 128.101562 C 305.832031 127.246094 306.238281 126.460938 306.789062 125.746094 C 307.335938 125.035156 307.992188 124.4375 308.753906 123.960938 C 310.644531 122.984375 312.648438 122.386719 314.765625 122.171875 C 324.972656 120.617188 335.234375 119.609375 345.550781 119.15625 C 350.238281 118.949219 354.925781 118.859375 359.613281 118.890625 L 357.492188 122.371094 C 352.351562 130.910156 347.429688 139.578125 341.941406 147.863281 C 339.503906 151.585938 336.734375 155.039062 333.632812 158.226562 L 332.796875 157.066406 C 329.464844 149.746094 326.757812 142.199219 324.675781 134.425781 C 324.234375 132.746094 322.898438 130.273438 320.753906 131.203125 C 320.269531 131.457031 319.859375 131.800781 319.523438 132.234375 C 319.1875 132.667969 318.960938 133.152344 318.839844 133.683594 C 318.460938 133.671875 318.132812 133.789062 317.851562 134.042969 C 317.394531 134.574219 317.113281 135.183594 317.011719 135.875 C 316.90625 136.570312 317 137.234375 317.285156 137.875 C 318.769531 141.355469 320.371094 144.835938 322.097656 148.316406 C 323.652344 152.84375 325.394531 157.308594 327.367188 161.671875 C 328.96875 165.234375 330.570312 169.855469 333.867188 172.234375 C 334.632812 172.738281 335.457031 173.117188 336.339844 173.371094 C 337.21875 173.628906 338.117188 173.75 339.035156 173.734375 C 339.953125 173.722656 340.851562 173.570312 341.722656 173.289062 C 342.59375 173.003906 343.40625 172.597656 344.15625 172.070312 C 347.640625 169.832031 349.636719 166.1875 351.445312 162.578125 C 353.253906 158.96875 355.191406 155.023438 357.015625 151.21875 C 360.796875 143.410156 364.394531 135.449219 367.738281 127.394531 C 368.898438 124.667969 369.964844 121.929688 371.042969 119.191406 C 372.902344 119.273438 374.746094 119.34375 376.589844 119.46875 C 379.214844 119.632812 381.847656 119.828125 384.46875 120.085938 C 384.46875 120.085938 384.933594 120.167969 385.179688 120.1875 L 385.257812 120.398438 C 385.605469 121.453125 385.921875 122.523438 386.234375 123.578125 C 387.664062 128.511719 388.886719 133.492188 389.902344 138.511719 C 391.867188 148.1875 392.984375 157.964844 393.253906 167.835938 C 393.394531 172.859375 393.253906 177.859375 393.058594 182.921875 C 393.058594 183.175781 393.058594 183.429688 392.988281 183.6875 C 392.988281 184.117188 392.871094 184.542969 392.8125 184.960938 C 392.800781 185.09375 392.777344 185.21875 392.742188 185.34375 C 392.742188 185.460938 392.742188 185.566406 392.652344 185.671875 C 392.558594 185.773438 392.523438 186.007812 392.453125 186.179688 C 392.417969 186.25 392.375 186.308594 392.324219 186.367188 C 391.917969 186.894531 391.402344 187.28125 390.78125 187.527344 C 389.929688 187.835938 389.050781 188.019531 388.148438 188.085938 C 377.703125 189.175781 367.34375 189.953125 356.945312 190.890625 L 325.359375 193.640625 C 323.492188 193.816406 321.644531 194.035156 319.789062 194.292969 C 316.234375 186.550781 313.15625 178.621094 310.566406 170.503906 Z M 360.566406 128.859375 C 358.871094 132.726562 357.136719 136.542969 355.355469 140.3125 C 353.707031 143.816406 352.007812 147.296875 350.25 150.753906 C 348.671875 154.078125 346.90625 157.296875 344.945312 160.410156 C 343.460938 162.636719 341.222656 164.679688 338.308594 164.421875 C 337.628906 164.375 337.015625 164.144531 336.476562 163.726562 C 342.566406 157.925781 347.164062 150.671875 351.5625 143.523438 Z M 393.058594 183.128906 Z M 392.511719 186.054688 Z M 407.945312 176.574219 C 407.800781 182.820312 407.121094 189.007812 405.902344 195.140625 C 405.753906 196.296875 405.433594 197.402344 404.941406 198.457031 C 404.230469 199.359375 403.320312 199.953125 402.210938 200.246094 C 399.695312 201.324219 397.082031 202.242188 394.472656 203.089844 C 384.082031 206.617188 373.398438 208.394531 362.421875 208.425781 C 353.230469 208.367188 344.375 206.617188 335.847656 203.179688 L 351.433594 201.578125 L 385.304688 198.097656 C 387.835938 198.003906 390.285156 197.519531 392.664062 196.648438 C 393.851562 196.078125 394.890625 195.3125 395.785156 194.347656 C 396.679688 193.378906 397.363281 192.28125 397.835938 191.054688 C 398.75 188.53125 399.207031 185.929688 399.207031 183.246094 C 399.347656 180.621094 399.417969 177.992188 399.425781 175.355469 C 399.472656 164.316406 398.550781 153.355469 396.664062 142.480469 C 395.75 137.164062 394.601562 131.886719 393.183594 126.675781 C 392.429688 123.855469 391.605469 121.058594 390.734375 118.273438 C 390.46875 117.394531 390.191406 116.441406 389.832031 115.535156 C 391.847656 116.820312 393.78125 118.21875 395.632812 119.738281 C 397.472656 121.402344 399.09375 123.261719 400.496094 125.308594 C 403.390625 129.578125 405.324219 134.246094 406.296875 139.3125 C 407.421875 145.304688 407.964844 151.351562 407.933594 157.449219 C 408.039062 163.820312 408.140625 170.203125 407.933594 176.574219 Z M 407.945312 176.574219 " fill-opacity="1" fill-rule="nonzero"/></g></svg>