<svg xmlns="http://www.w3.org/2000/svg" xmlns:xlink="http://www.w3.org/1999/xlink" width="500" zoomAndPan="magnify" viewBox="0 0 375 374.999991" height="500" preserveAspectRatio="xMidYMid meet" version="1.0"><defs><g/><clipPath id="c7b0a0a483"><path d="M 267.195312 69.359375 L 267.707031 69.359375 L 267.707031 69.761719 L 267.195312 69.761719 Z M 267.195312 69.359375 " clip-rule="nonzero"/></clipPath><clipPath id="6dc0118787"><path d="M 267.679688 69.601562 C 266.710938 70.03125 267.570312 69.386719 267.570312 69.386719 " clip-rule="nonzero"/></clipPath><clipPath id="2578cc0dc8"><path d="M 107.894531 141.320312 L 229.785156 141.320312 L 229.785156 177.699219 L 107.894531 177.699219 Z M 107.894531 141.320312 " clip-rule="nonzero"/></clipPath><clipPath id="15b90971c4"><path d="M 115.558594 132.605469 L 222.121094 132.605469 L 222.121094 168.984375 L 115.558594 168.984375 Z M 115.558594 132.605469 " clip-rule="nonzero"/></clipPath></defs><g fill="#ff9066" fill-opacity="1"><g transform="translate(21.210126, 299.384383)"><g><path d="M 36.9375 55.40625 L 36.9375 36.9375 L 18.46875 36.9375 L 18.46875 -55.40625 L 0 -55.40625 L 0 -73.875 L 18.46875 -73.875 L 18.46875 -166.203125 L 36.9375 -166.203125 L 36.9375 -184.671875 L 73.875 -184.671875 L 73.875 -166.203125 L 55.40625 -166.203125 L 55.40625 -73.875 L 36.9375 -73.875 L 36.9375 -55.40625 L 55.40625 -55.40625 L 55.40625 36.9375 L 73.875 36.9375 L 73.875 55.40625 Z M 36.9375 55.40625 "/></g></g></g><g fill="#ff9066" fill-opacity="1"><g transform="translate(244.494452, 299.384383)"><g><path d="M 0 55.40625 L 0 36.9375 L 18.46875 36.9375 L 18.46875 -55.40625 L 36.9375 -55.40625 L 36.9375 -73.875 L 18.46875 -73.875 L 18.46875 -166.203125 L 0 -166.203125 L 0 -184.671875 L 36.9375 -184.671875 L 36.9375 -166.203125 L 55.40625 -166.203125 L 55.40625 -73.875 L 73.875 -73.875 L 73.875 -55.40625 L 55.40625 -55.40625 L 55.40625 36.9375 L 36.9375 36.9375 L 36.9375 55.40625 Z M 0 55.40625 "/></g></g></g><g fill="#ff9066" fill-opacity="1"><g transform="translate(113.86127, 299.384383)"><g><path d="M 0 55.40625 L 0 36.9375 L 110.8125 36.9375 L 110.8125 55.40625 Z M 0 55.40625 "/></g></g></g><g fill="#ff9066" fill-opacity="1"><g transform="translate(352.670667, 204.832421)"><g><path d="M -11.703125 0 L -11.703125 11.703125 L 0 11.703125 L 0 70.234375 L -11.703125 70.234375 L -11.703125 81.9375 L -58.53125 81.9375 L -58.53125 70.234375 L -23.40625 70.234375 L -23.40625 11.703125 L -58.53125 11.703125 L -58.53125 0 Z M -11.703125 0 "/></g></g></g><g fill="#ff9066" fill-opacity="1"><g transform="translate(132.019122, 150.021971)"><g><path d="M -33.1875 0 L -22.125 0 L -22.125 11.0625 L 0 11.0625 L 0 22.125 L 77.4375 22.125 L 77.4375 11.0625 L 99.546875 11.0625 L 99.546875 0 L 110.609375 0 L 110.609375 22.125 L 99.546875 22.125 L 99.546875 33.1875 L 77.4375 33.1875 L 77.4375 44.25 L 0 44.25 L 0 33.1875 L -22.125 33.1875 L -22.125 22.125 L -33.1875 22.125 Z M -33.1875 0 "/></g></g></g><g fill="#ff9066" fill-opacity="1"><g transform="translate(59.091598, 12.268718)"><g><path d="M 39.140625 0 L 65.234375 0 L 65.234375 13.046875 L 78.28125 13.046875 L 78.28125 39.140625 L 65.234375 39.140625 L 65.234375 65.234375 L 78.28125 65.234375 L 78.28125 78.28125 L 52.1875 78.28125 L 52.1875 65.234375 L 39.140625 65.234375 L 39.140625 39.140625 L 52.1875 39.140625 L 52.1875 13.046875 L 39.140625 13.046875 Z M 39.140625 0 "/></g></g></g><g fill="#ff9066" fill-opacity="1"><g transform="translate(108.233616, 37.724828)"><g><path d="M 39.140625 0 L 65.234375 0 L 65.234375 13.046875 L 78.28125 13.046875 L 78.28125 39.140625 L 65.234375 39.140625 L 65.234375 65.234375 L 78.28125 65.234375 L 78.28125 78.28125 L 52.1875 78.28125 L 52.1875 65.234375 L 39.140625 65.234375 L 39.140625 39.140625 L 52.1875 39.140625 L 52.1875 13.046875 L 39.140625 13.046875 Z M 39.140625 0 "/></g></g></g><g fill="#ff9066" fill-opacity="1"><g transform="translate(267.252358, 103.851973)"><g><path d="M -38.421875 0 L -64.03125 0 L -64.03125 -12.8125 L -76.828125 -12.8125 L -76.828125 -38.421875 L -64.03125 -38.421875 L -64.03125 -64.03125 L -76.828125 -64.03125 L -76.828125 -76.828125 L -51.21875 -76.828125 L -51.21875 -64.03125 L -38.421875 -64.03125 L -38.421875 -38.421875 L -51.21875 -38.421875 L -51.21875 -12.8125 L -38.421875 -12.8125 Z M -38.421875 0 "/></g></g></g><g clip-path="url(#c7b0a0a483)"><g clip-path="url(#6dc0118787)"><path fill="#ff9066" d="M 262.402344 65.078125 L 272.101562 65.078125 L 272.101562 74.449219 L 262.402344 74.449219 Z M 262.402344 65.078125 " fill-opacity="1" fill-rule="nonzero"/><path fill="#ff9066" d="M 262.402344 65.078125 L 272.101562 65.078125 L 272.101562 74.449219 L 262.402344 74.449219 Z M 262.402344 65.078125 " fill-opacity="1" fill-rule="nonzero"/></g></g><g clip-path="url(#2578cc0dc8)"><path fill="#ff9066" d="M 107.894531 141.320312 L 229.820312 141.320312 L 229.820312 177.699219 L 107.894531 177.699219 Z M 107.894531 141.320312 " fill-opacity="1" fill-rule="nonzero"/></g><g clip-path="url(#15b90971c4)"><path fill="#ff9066" d="M 115.558594 132.605469 L 222.136719 132.605469 L 222.136719 168.984375 L 115.558594 168.984375 Z M 115.558594 132.605469 " fill-opacity="1" fill-rule="nonzero"/></g></svg>